# xmcd
# Copyright (C) 1995-1998 Ti Kan
#
# Track frame offsets:
#       150
#       17750
#       34960
#       51817
#       67507
#       86612
#       100987
#
# Disc length: 1570 seconds
#
# Revision: 0
# Processed by: cddbd v1.5.2PL0 Copyright (c) Steve Scherf et al.
# Submitted via: CD-Transfer v1.0
#
DISCID=4e062007
DTITLE=The Bliss - The Bliss
DYEAR=05
DGENRE=
TTITLE0=The Bomb
TTITLE1=N.d.e.
TTITLE2=Something Real
TTITLE3=One
TTITLE4=Unreal
TTITLE5=What I Wanna Be
TTITLE6=Who Do I See?
EXTD=
EXTT0=
EXTT1=
EXTT2=
EXTT3=
EXTT4=
EXTT5=
EXTT6=
PLAYORDER=
